<svg xmlns="http://www.w3.org/2000/svg" width="500" height="500"><path d="M426.5 20.6h-353c-29.2 0-52.9 23.7-52.9 52.9v352.9c0 29.3 23.7 53 52.9 53h352.9c29.2 0 52.9-23.7 52.9-53V73.5c.1-29.2-23.6-52.9-52.8-52.9zM250 161.8c48.7 0 88.2 39.5 88.2 88.2s-39.5 88.2-88.2 88.2-88.2-39.5-88.2-88.2 39.5-88.2 88.2-88.2zm172 242.6c0 9.7-7.9 17.6-17.7 17.6H95.6c-9.8 0-17.7-7.9-17.7-17.6V211.8h36.3c-1.7 6-2.9 12.2-3.8 18.6-1 6.4-1.5 13-1.5 19.7 0 78 63.2 141.2 141.1 141.2S391.1 328 391.1 250c0-6.7-.6-13.2-1.5-19.7-.9-6.3-2.1-12.5-3.8-18.6H422v192.7zm0-267.2c0 9.7-7.9 17.6-17.7 17.6h-41.6c-9.8 0-17.6-7.9-17.6-17.6V95.6c0-9.7 7.9-17.6 17.6-17.6h41.6c9.8 0 17.7 7.9 17.7 17.6v41.6z" fill="#aaa"/></svg>