<svg version="1.1" id="Layer_1" xmlns="http://www.w3.org/2000/svg" x="0" y="0" viewBox="0 0 500 500" xml:space="preserve"><style>.st0{fill:#aaa}</style><g id="XMLID_24_"><path id="XMLID_23_" class="st0" d="M477.4 491.1c-34.5-4.9-68.9-14-102.5-27-24.2-44.8-45.4-93.4-62.7-145.1-35-104.6-50.5-210.4-48.6-310.1 10.7 3.2 21.2 6.8 31.7 10.9 5 157 67 327.6 182.1 471.3z"/><path id="XMLID_22_" class="st0" d="M22.6 491.1c34.5-4.9 68.9-14 102.5-27 24.2-44.8 45.4-93.4 62.7-145.1 35-104.6 50.5-210.4 48.6-310.1-10.7 3.2-21.2 6.8-31.7 10.9-5 157-67 327.6-182.1 471.3z"/></g></svg>