<svg xmlns="http://www.w3.org/2000/svg" viewBox="0 0 500 500"><path d="M493 99.2c-17.9 7.9-37.1 13.3-57.3 15.7 20.6-12.3 36.4-31.9 43.8-55.2C460.3 71.2 439 79.5 416.3 84c-18.2-19.4-44.1-31.5-72.8-31.5-64.4 0-111.7 60.1-97.1 122.5C163.5 170.8 90 131.1 40.8 70.7c-26.1 44.8-13.6 103.5 30.9 133.1-16.3-.5-31.7-5-45.2-12.5-1.1 46.2 32 89.4 80 99-14 3.8-29.4 4.7-45 1.7 12.7 39.6 49.5 68.5 93.2 69.3-42 33-94.8 47.6-147.7 41.4 44.1 28.3 96.6 44.8 152.9 44.8 185.2 0 289.8-156.4 283.5-296.6 19.4-14.1 36.3-31.7 49.6-51.7z" fill="#aaa"/></svg>