<svg version="1.1" id="Layer_1" xmlns="http://www.w3.org/2000/svg" x="0" y="0" viewBox="0 0 500 500" xml:space="preserve"><style>.st0{fill:#aaa}</style><path id="XMLID_10_" class="st0" d="M123.5 228.6h30.9v-81.4L190.5 28H159l-19.8 80.2L117.8 28H86.6l36.9 119.2z"/><path id="XMLID_9_" class="st0" d="M311.5 230.7c8.3 0 19.9-4.3 31.8-18.5v16.3h27.5V80.6h-27.5v112.3c-3.4 4.2-10.8 11.1-16.2 11.1-5.9 0-7.3-4-7.3-10V80.6h-27.5v123.7c0 14.6 4.4 26.4 19.2 26.4z"/><path class="st0" d="M189.1 191.7c0 26.1 13.6 39.6 40.3 39.6 22.1 0 39.5-14.8 39.5-39.6v-72.5c0-23.2-17.2-39.7-39.5-39.7-24.2 0-40.3 16-40.3 39.7v72.5zm28.3-70.1c0-8.1 3.7-14.1 11.5-14.1 8.4 0 12 5.8 12 14.1v68.8c0 8.1-4.1 14-11.5 14-7.6 0-12-6.2-12-14v-68.8z"/><path id="XMLID_6_" class="st0" d="M208.1 435.9c-3.2 4-10.3 10.6-15.4 10.6-5.6 0-7-3.8-7-9.5V329h-26.2v117.8c0 28.6 19.4 28.8 33.5 20.7 5.2-3 10.2-7.4 15.1-13.1V470h26.2V329h-26.2v106.9z"/><path class="st0" d="M308.3 327.5c-9.4 0-17.4 6-23.3 13.2v-61.5h-26.5v191H285v-10.8c7.3 9.1 15.3 12.6 24.9 12.6 17.4 0 23.9-13.5 23.9-31v-78.2c.1-19.1-6.3-35.3-25.5-35.3zm-1.4 109.7c0 4.5-.8 7.7-2.3 9.7-2.9 3.8-9.1 3.6-13.4 1.4-2-1-4.1-2.7-6.2-5v-87.8c1.8-1.9 3.6-3.4 5.4-4.3 4.6-2.3 10.5-1.9 13.7 2.3 1.9 2.5 2.8 6.1 2.8 10.8v72.9z"/><path id="XMLID_3_" class="st0" d="M159.9 281H69.3v27.7h30.5V472h29.5V308.7h30.6z"/><path class="st0" d="M393.4 323.7c-23.6 0-39.8 17-39.8 41.4v63.2c0 25.4 12.8 43.6 37.8 43.6 27.6 0 39.3-16.4 39.3-43.6v-10.6h-27v9.8c0 12.3-.6 19.7-11.7 19.7-10.5 0-11.4-9.1-11.4-19.7V401h50.1v-35.9c0-25.4-12.2-41.4-37.3-41.4zm10.3 55.5h-23.1v-14.3c0-9.7 2-16.5 11.7-16.5 9.4 0 11.4 7 11.4 16.5v14.3z"/></svg>